<svg width="15" height="15" viewBox="0 0 158 156" fill="none" xmlns="http://www.w3.org/2000/svg">
<g clip-path="url(#clip0_5328_2677)">
<path d="M119.934 44.4916H149.853C153.851 44.4916 157.118 41.1816 157.118 37.2268V7.26481C157.118 3.26702 153.808 0 149.853 0H119.934C115.936 0 112.669 3.31 112.669 7.26481V16.2491H70.3268C66.9308 16.2491 64.1367 18.9573 64.1367 22.2243V71.7884H44.4916V63.019C44.4916 59.0212 41.1816 55.7542 37.2268 55.7542H7.26481C3.26702 55.7542 0 59.0642 0 63.019V92.938C0 96.9358 3.31 100.203 7.26481 100.203H37.1838C41.1816 100.203 44.4486 96.8928 44.4486 92.938V83.7818H64.0937V133.26C64.0937 136.57 66.8878 139.235 70.2838 139.235H112.497V148.606C112.497 152.604 115.807 155.871 119.762 155.871H149.681C153.679 155.871 156.946 152.561 156.946 148.606V118.687C156.946 114.689 153.636 111.422 149.681 111.422H119.762C115.764 111.422 112.497 114.732 112.497 118.687V127.156H76.345V83.7818H112.497V92.938C112.497 96.9358 115.807 100.203 119.762 100.203H149.681C153.679 100.203 156.946 96.8928 156.946 92.938V63.019C156.946 59.0212 153.636 55.7542 149.681 55.7542H119.762C115.764 55.7542 112.497 59.0642 112.497 63.019V71.7884H76.345V28.3285H112.497V37.2268C112.669 41.3106 115.936 44.4916 119.934 44.4916ZM124.233 13.369C124.233 12.0794 125.35 10.9617 126.64 10.9617H143.878C145.167 10.9617 146.285 12.0794 146.285 13.369V30.5208C146.285 31.8104 145.167 32.9281 143.878 32.9281H126.64C125.35 32.9281 124.233 31.8104 124.233 30.5208V13.369ZM33.315 86.5759C33.315 87.8655 32.1973 88.9832 30.9077 88.9832H13.6699C12.3803 88.9832 11.2626 87.8655 11.2626 86.5759V69.4241C11.2626 68.1345 12.3803 67.0168 13.6699 67.0168H30.9077C32.1973 67.0168 33.315 68.1345 33.315 69.4241V86.5759ZM124.233 125.479C124.233 124.19 125.35 123.072 126.64 123.072H143.878C145.167 123.072 146.285 124.19 146.285 125.479V142.631C146.285 143.921 145.167 145.038 143.878 145.038H126.64C125.35 145.038 124.233 143.921 124.233 142.631V125.479ZM124.233 69.4241C124.233 68.1345 125.35 67.0168 126.64 67.0168H143.878C145.167 67.0168 146.285 68.1345 146.285 69.4241V86.5759C146.285 87.8655 145.167 88.9832 143.878 88.9832H126.64C125.35 88.9832 124.233 87.8655 124.233 86.5759V69.4241Z" fill="#357AE3"/>
<rect x="10" y="61" width="34" height="34" fill="#357AE3"/>
</g>
<defs>
<clipPath id="clip0_5328_2677">
<rect width="157.118" height="156" fill="white"/>
</clipPath>
</defs>
</svg>
