<svg width="28" height="29" viewBox="0 -5 65 1" fill="none" xmlns="http://www.w3.org/2000/svg">
<rect x="0.5" y="0.5" width="55" height="28" rx="3.5" fill="#4E3E4B" stroke="#93797B"/>
<g clip-path="url(#clip0)">
<path d="M13.9063 16.2887C15.5525 16.2887 16.8836 17.596 16.8836 19.1985C16.8836 20.8011 15.5461 22.1083 13.9063 22.1083C12.2666 22.1083 10.9291 20.8074 10.9291 19.1985C10.9291 17.5897 12.2666 16.2887 13.9063 16.2887ZM13.9063 14.4034C11.1992 14.4034 9 16.5527 9 19.1985C9 21.8444 11.1992 23.9937 13.9063 23.9937C16.6135 23.9937 18.8127 21.8444 18.8127 19.1985C18.8127 16.5527 16.62 14.4034 13.9063 14.4034Z" fill="#FFA792"/>
<path d="M26.8893 16.5904C29.599 16.5904 31.7956 14.4435 31.7956 11.7952C31.7956 9.14688 29.599 7 26.8893 7C24.1796 7 21.9829 9.14688 21.9829 11.7952C21.9829 14.4435 24.1796 16.5904 26.8893 16.5904Z" fill="#FFA792"/>
<path d="M43.0937 11.4244C44.7399 11.4244 46.071 12.7316 46.071 14.3342C46.071 15.9368 44.7335 17.244 43.0937 17.244C41.4475 17.244 40.1165 15.9368 40.1165 14.3342C40.1165 12.7316 41.4475 11.4244 43.0937 11.4244ZM43.0937 9.539C40.3801 9.539 38.1873 11.6884 38.1873 14.3342C38.1873 16.98 40.3865 19.1294 43.0937 19.1294C45.8009 19.1294 48.0001 16.98 48.0001 14.3342C48.0001 11.6884 45.8009 9.539 43.0937 9.539Z" fill="#FFA792"/>
<path d="M28.1302 9.99777L17.3466 16.0813L18.2918 17.6776L29.0755 11.5941L28.1302 9.99777Z" fill="#FFA792"/>
<path d="M27.2942 10.6011L26.9277 12.4111L39.1389 14.7804L39.5119 12.9704L27.2942 10.6011Z" fill="#FFA792"/>
</g>
<defs>
<clipPath id="clip0">
<rect width="39" height="17" fill="white" transform="translate(9 7)"/>
</clipPath>
</defs>
</svg>
