<svg width="28" height="29" viewBox="0 -5 65 1" fill="none" xmlns="http://www.w3.org/2000/svg">
<rect x="0.5" y="0.5" width="55" height="28" rx="3.5" fill="#4E3E4B" stroke="#93797B"/>
<path d="M44.5 22C41.7 22 40.6 18.4 39.7 14.9C39.2 13.3 38.4 10.3 37.7 10C37.1 10.3 36.2 13.3 35.8 14.9C34.8 18.4 33.8 22 31 22C28.2 22 27 18.4 26 14.9C25.5 13.3 24.7 10.3 24 10C23.4 10.3 22.5 13.3 22.1 14.9C21.1 18.4 20.1 22 17.3 22C14.5 22 13.4 18.4 12.5 14.9C12 13.3 11.2 10.3 10.5 10C9.7 10 9 9.3 9 8.5C9 7.7 9.7 7 10.5 7C13.3 7 14.4 10.6 15.3 14.1C15.8 15.7 16.6 18.7 17.3 19C17.9 18.7 18.8 15.7 19.2 14.1C20.2 10.6 21.2 7 24 7C26.8 7 27.9 10.6 28.8 14.1C29.3 15.7 30.1 18.7 30.8 19C31.4 18.7 32.3 15.7 32.7 14.1C33.7 10.6 34.7 7 37.5 7C40.3 7 41.4 10.6 42.3 14.1C42.8 15.7 43.6 18.7 44.3 19C45.1 19 45.8 19.7 45.8 20.5C46 21.3 45.3 22 44.5 22Z" fill="#FFA792"/>
</svg>
