<svg width="18" height="16" viewBox="0 0 18 16" fill="none" xmlns="http://www.w3.org/2000/svg">
<path d="M3.90804 14.996L0.216642 8.69342C0.0747174 8.45111 0 8.17624 0 7.89645C0 7.61665 0.0747174 7.34178 0.216642 7.09947L3.90804 0.79704C4.04998 0.554695 4.25415 0.353452 4.50001 0.213542C4.74587 0.0736311 5.02476 -1.72213e-05 5.30866 3.02054e-09H12.6914C12.9753 7.11137e-06 13.2542 0.0736669 13.5 0.213576C13.7458 0.353486 13.95 0.554715 14.0919 0.79704L17.7833 7.09947C17.9253 7.3418 18 7.61669 18 7.89651C18 8.17634 17.9253 8.45123 17.7833 8.69355L14.0919 14.9959C13.95 15.2382 13.7458 15.4394 13.5 15.5793C13.2542 15.7192 12.9753 15.7929 12.6914 15.7929H5.30866C5.02476 15.7929 4.74586 15.7193 4.5 15.5794C4.25413 15.4395 4.04997 15.2382 3.90804 14.9959V14.996Z" fill="url(#paint0_linear)"/>
<path opacity="0.07" d="M6.93549 6.493L5.94971 7.46192L6.78741 8.28779L5.958 9.73992L12.2348 15.9271L13.7558 15.9274L16.7262 10.6688L12.0227 6.0321L6.93549 6.493Z" fill="black"/>
<path d="M11.9109 5.99342H6.08401C5.99022 5.99342 5.91357 6.06911 5.91357 6.1617V7.34908C5.91357 7.4414 5.99036 7.51708 6.08401 7.51708H11.9109C12.0047 7.51708 12.0815 7.4414 12.0815 7.34908V6.16143C12.0815 6.06911 12.0049 5.99329 11.9111 5.99329L11.9109 5.99342ZM11.0088 7.09888C10.9165 7.09862 10.8279 7.06231 10.7627 6.99788C10.6974 6.93346 10.6607 6.84617 10.6605 6.75511C10.6605 6.71001 10.6695 6.66535 10.6869 6.62368C10.7044 6.582 10.7301 6.54414 10.7624 6.51225C10.7948 6.48036 10.8332 6.45507 10.8755 6.43783C10.9178 6.42058 10.9631 6.41173 11.0088 6.41177C11.2015 6.41177 11.3576 6.56466 11.3576 6.75511C11.3576 6.80026 11.3486 6.84496 11.331 6.88667C11.3135 6.92838 11.2878 6.96627 11.2554 6.99819C11.2231 7.03011 11.1846 7.05544 11.1423 7.07271C11.1 7.08999 11.0546 7.09888 11.0088 7.09888ZM11.9109 8.27586L6.08401 8.27614C5.99022 8.27614 5.91357 8.35182 5.91357 8.44442V9.63165C5.91357 9.72397 5.99036 9.79979 6.08401 9.79979H11.9109C12.0047 9.79979 12.0815 9.72397 12.0815 9.63165V8.44414C12.0815 8.35182 12.0049 8.27586 11.9111 8.27586H11.9109ZM11.0088 9.38145C10.9164 9.38123 10.8279 9.34493 10.7626 9.2805C10.6973 9.21607 10.6606 9.12875 10.6605 9.03769C10.6605 8.99259 10.6695 8.94792 10.6869 8.90625C10.7044 8.86458 10.7301 8.82671 10.7624 8.79482C10.7948 8.76293 10.8332 8.73764 10.8755 8.7204C10.9178 8.70316 10.9631 8.6943 11.0088 8.69434C11.0558 8.69248 11.1026 8.69999 11.1465 8.71641C11.1905 8.73284 11.2306 8.75784 11.2644 8.78992C11.2983 8.822 11.3253 8.86049 11.3437 8.90309C11.3621 8.94569 11.3716 8.99152 11.3716 9.03783C11.3716 9.08413 11.3621 9.12996 11.3437 9.17256C11.3253 9.21516 11.2983 9.25366 11.2644 9.28574C11.2306 9.31782 11.1905 9.34282 11.1465 9.35924C11.1026 9.37567 11.0558 9.38317 11.0088 9.38132" fill="white"/>
<defs>
<linearGradient id="paint0_linear" x1="9.00005" y1="0.000138619" x2="9.00005" y2="15.7684" gradientUnits="userSpaceOnUse">
<stop stop-color="#4387FD"/>
<stop offset="1" stop-color="#4683EA"/>
</linearGradient>
</defs>
</svg>
