<svg width="28" height="30" viewBox="0 0 28 30" fill="none" xmlns="http://www.w3.org/2000/svg">
<g clip-path="url(#clip0)">
<path d="M13.75 22.9377L25.3 25.654V4.28546L13.75 7.00172V22.9377Z" fill="#205B97"/>
<path d="M25.3 4.28546L27.5 5.37197V24.5675L25.3 25.654V4.28546ZM13.75 22.9377L2.20001 25.654V4.28546L13.75 7.00172V22.9377Z" fill="#5193CE"/>
<path d="M2.2 4.28546L0 5.37197V24.5675L2.2 25.654V4.28546Z" fill="#205B97"/>
<path d="M16.6839 30L21.0839 27.827V2.17301L16.6839 0L15.3387 14.2457L16.6839 30Z" fill="#5193CE"/>
<path d="M10.8161 30L6.41614 27.827V2.17301L10.8161 0L12.1613 14.2457L10.8161 30Z" fill="#205B97"/>
<path d="M10.8161 0H16.7435V29.9395H10.8161V0Z" fill="#2E73B7"/>
</g>
<defs>
<clipPath id="clip0">
<rect width="27.5" height="30" fill="white"/>
</clipPath>
</defs>
</svg>
