<?xml version="1.0" encoding="utf-8"?>
<!-- Generator: Adobe Illustrator 25.2.1, SVG Export Plug-In . SVG Version: 6.00 Build 0)  -->
<svg version="1.1" id="Layer_1" xmlns="http://www.w3.org/2000/svg" xmlns:xlink="http://www.w3.org/1999/xlink" x="0px" y="0px"
	 viewBox="0 0 528 130" style="enable-background:new 0 0 528 130;" xml:space="preserve">
<style type="text/css">
	.st0{fill:url(#SVGID_1_);}
	.st1{fill:#003764;}
	.st2{fill:#8BBCE5;}
	.st3{fill:#006EAC;}
	.st4{fill:#FFFFFF;}
</style>
<linearGradient id="SVGID_1_" gradientUnits="userSpaceOnUse" x1="76.4579" y1="726.299" x2="38.2934" y2="778.049" gradientTransform="matrix(1 0 0 1 0 -683.6)">
	<stop  offset="0" style="stop-color:#FFFFFF"/>
	<stop  offset="1" style="stop-color:#8BBCE5"/>
</linearGradient>
<circle class="st0" cx="63.3" cy="60.5" r="30.8"/>
<path class="st1" d="M117.1,59.6c0,1.3,0,2.6-0.1,3.9C117.1,62.1,117.1,60.9,117.1,59.6"/>
<path class="st2" d="M16.6,73.1c-0.2,0-0.4,0-0.5,0C14,73,12,72.3,10.3,71.3c4.9,24.8,26.8,43.6,53,43.6c9,0,17.9-2.2,25.8-6.5
	l8.6,10.9c2.7,3,7.4,3.3,10.4,0.5c2.7-2.5,3.2-6.5,1.2-9.6l-0.1-0.1L96.8,94.3C95,92,92,91,89.2,91.7c-1.2,0.1-2.3,0.6-3.3,1.2
	c-17.8,12.5-42.3,8.2-54.8-9.6c-2.9-4.1-5-8.8-6.1-13.7C22.8,71.8,19.9,73.1,16.6,73.1z"/>
<path class="st3" d="M51,13.5c0.1-2.1,0.7-4.1,1.8-5.8C28,12.6,9.3,34.5,9.2,60.7c-0.2,4.1,3,7.5,7,7.7c4.1,0.2,7.5-3,7.7-7
	c0-0.2,0-0.4,0-0.7c0-18.7,13-34.2,30.5-38.3C52.2,20.1,50.8,17,51,13.5z"/>
<path class="st4" d="M63.3,6.6L63.3,6.6c-4.1-0.2-7.5,3-7.7,7c-0.2,4.1,3,7.5,7,7.7c0.2,0,0.4,0,0.7,0c21.7,0,39.3,17.6,39.3,39.3
	c0,1,0,1.9-0.1,2.9c-0.2,2.8-0.7,5.5-1.5,8.2c-1.4,3.8,0.6,8.1,4.4,9.4c3.8,1.4,8.1-0.6,9.4-4.4c0.1-0.2,0.1-0.4,0.2-0.6l0.1-0.3
	c1.1-3.7,1.8-7.5,2-11.3c0.1-1.3,0.1-2.7,0.1-3.9C117.5,30.9,93.2,6.7,63.3,6.6z"/>
<path class="st4" d="M174.5,92.1h-0.2c-3.1,5.3-9.6,8.3-16.2,8.3c-11.4,0-22.7-6.3-22.7-22.3V40h10.2v34.3c0,8.9,3.6,16.5,13.7,16.5
	c9.5,0,15.3-6.5,15.3-17.7V40h10.2v59h-10.2L174.5,92.1z"/>
<path class="st4" d="M240,59.5c0-9.8-9.8-12-17.7-12c-5.7,0.1-11.3,1.5-16.3,4.1l-4.4-8.5c6.7-2.9,14-4.4,21.3-4.4
	c14.2,0,27.3,6,27.3,20.1V99h-9.5v-6.4c-5.2,5.4-11,7.7-18.8,7.7c-14.4,0-25.7-8-25.7-21.2c0-10.8,9.2-20.3,25.6-20.3
	c6.7-0.1,13.2,2.3,18.2,6.7V59.5z M223.7,67.9c-12.5,0-16.7,6-16.7,11.8c0,5.8,4.2,11.8,16.7,11.8c12.5,0,16.7-6,16.7-11.8
	C240.4,73.9,236.2,67.9,223.7,67.9L223.7,67.9z"/>
<path class="st4" d="M274.9,12.9v67.7c0,6.7,3.3,9,6.6,9h3.1V99h-4.2c-9.4,0-15.6-5.3-15.6-17.7V12.9H274.9z"/>
<polygon class="st4" points="310.3,98.1 285.7,40 297.4,40 316.2,85.6 335.4,40 346.3,40 309.9,124 299.3,124 "/>
<path class="st4" d="M360.2,25.7h10.2V40h9.4v9h-9.4v36.2c0,3.2,1,4.4,5,4.4h4.7V99c-1.5,0.1-3.9,0.1-6.2,0.1
	c-10.4,0-13.6-3.6-13.6-12.7V48.9H352V40h8.2L360.2,25.7z"/>
<path class="st4" d="M397,14.2c3.9,0,7.1,3.2,7.1,7.1c0,4-3.2,7.1-7.1,7.1c-3.9,0-7.1-3.2-7.1-7.1C389.8,17.4,393,14.2,397,14.2
	 M391.9,40.1H402v59h-10.2V40.1z"/>
<path class="st4" d="M459.8,54c-3.6-3.7-8.5-5.9-13.7-5.9c-10.1,0-19.5,7.4-19.5,21.9c0,12,8.7,20.9,20.5,20.9c4.9,0,9.6-2.7,13.2-6
	l6,7.5c-5.4,5.3-12.8,8.1-20.3,8c-18.1,0-30.1-14.3-30.1-30.6c-0.2-16.9,13.3-30.8,30.2-31h0c7.5,0,14.8,2.6,20.7,7.4L459.8,54z"/>
<path class="st4" d="M483.4,81.8c0.7,6.3,6,9.6,12.3,9.6c9.2,0,11.6-5,11.6-8.5c0-3.8-2.5-6.2-10.4-8.4l-10.3-2.8
	c-8.7-2.4-12-8.2-12-15.2c0-9.8,7.4-17.9,21.1-17.9c15.1,0,20.3,9.5,20.3,18.4h-9.5c-0.8-6.6-4.2-10-11-10c-6.5,0-10.6,3.9-10.6,8.5
	c0,3.3,1.8,5.8,6.6,7.1l13.8,4c9.3,2.6,12.4,7.8,12.4,15.4c0,12-10.5,18.4-21.4,18.4c-13.8,0-21.9-7.4-22.2-18.6L483.4,81.8z"/>
</svg>
