<svg width="610" height="126" viewBox="0 0 610 126" fill="none" xmlns="http://www.w3.org/2000/svg">
<path d="M581.945 99.577C572.402 99.577 564.934 97.0875 559.816 91.9703C555.253 87.5446 552.901 81.7359 552.901 74.6825H566.732C566.732 79.1082 568.668 82.2891 572.402 84.3637C573.923 85.0552 575.583 85.6084 577.381 86.0233C578.902 86.2999 580.424 86.4382 581.945 86.4382C591.211 86.4382 595.775 83.3955 595.775 77.4485C595.775 72.3313 590.52 69.427 580.009 68.4589C563.827 66.9375 555.667 60.299 555.667 48.405C555.667 42.8729 557.465 38.1706 561.2 34.4364C565.625 29.8724 572.125 27.6595 580.562 27.6595C589.275 27.6595 595.914 30.0107 600.616 34.8513C604.765 39.0004 606.839 44.3942 606.839 51.171H593.009C593.009 44.2559 588.86 40.7983 580.562 40.7983C573.232 40.7983 569.498 43.2878 569.498 48.405C569.498 52.8306 573.37 55.3201 581.253 56.0116C590.935 56.9797 597.988 58.916 602.414 62.0969C607.254 65.5545 609.605 70.6717 609.605 77.4485C609.605 83.3955 607.531 88.3744 603.382 92.3852C598.541 97.2258 591.35 99.577 581.945 99.577Z" fill="white"/>
<path d="M444.142 29.0432H457.972V98.1944H444.142V29.0432Z" fill="white"/>
<path d="M416.446 29.0426H433.043V42.1813H416.446V98.1939H402.616V42.1813H387.403V29.0426H402.616V13.8293L416.446 9.68018V29.0426Z" fill="white"/>
<path d="M383.214 29.0426L350.298 125.854H335.776L345.181 98.194H336.191L312.68 29.0426H327.202L347.947 90.0341L368.693 29.0426H383.214Z" fill="white"/>
<path d="M233.801 86.4382C240.578 86.4382 245.972 84.3637 250.259 80.0763C254.547 75.7889 256.621 70.3951 256.621 63.6183C256.621 56.8414 254.547 51.4476 250.259 47.1602C245.972 42.8729 240.578 40.7983 233.801 40.7983C227.025 40.7983 221.631 42.8729 217.343 47.1602C213.056 51.4476 210.981 56.8414 210.981 63.6183C210.981 70.3951 213.056 75.7889 217.343 80.0763C221.631 84.3637 227.025 86.4382 233.801 86.4382ZM270.452 29.0426V98.1939H256.621V89.066C249.983 96.1194 241.685 99.577 231.727 99.577C221.907 99.577 213.609 96.1194 207.109 89.3426C200.47 82.4274 197.151 73.8527 197.151 63.6183C197.151 53.3839 200.47 44.8091 207.109 37.894C213.609 31.1171 221.907 27.6595 231.727 27.6595C241.685 27.6595 249.983 31.1171 256.621 38.1706V29.0426H270.452Z" fill="white"/>
<path d="M169.544 29.0426H183.374V98.194H169.544V89.2043C163.873 96.1194 156.267 99.577 146.724 99.577C137.872 99.577 130.681 96.6726 125.149 90.7256C119.755 84.9169 116.989 77.4485 116.989 68.4589V29.0426H130.819V67.0758C130.819 73.0229 132.617 77.7252 136.075 81.1827C139.532 84.6403 144.234 86.4382 150.181 86.4382C156.128 86.4382 160.831 84.6403 164.288 81.1827C167.746 77.7252 169.544 73.0229 169.544 67.0758V29.0426Z" fill="white"/>
<path d="M50.8057 0V13.124H50.8047C29.9929 13.1241 13.1211 30.0004 13.1211 50.8174C13.1216 71.6339 29.9932 88.5097 50.8047 88.5098C71.6162 88.5097 88.4868 71.6339 88.4873 50.8174C88.4873 30.4504 72.3378 13.8574 52.1484 13.1494L75.125 6.19141C90.9053 14.814 101.61 31.5655 101.61 50.8184C101.61 65.3055 95.5482 78.3759 85.8242 87.6328L101.611 101.61H52.3955C51.8673 101.627 51.3369 101.636 50.8047 101.636C22.7462 101.636 0.000459422 78.8838 0 50.8184C7.2229e-05 22.7526 22.7459 0.000224805 50.8047 0H50.8057Z" fill="white"/>
<path d="M302.247 98.1942H288.416V11.5682L302.247 7.37976V98.1942Z" fill="white"/>
<path d="M457.973 19.6149H444.142V13.8698L457.973 9.68127V19.6149Z" fill="white"/>
<path d="M508.238 27.6591C517.781 27.6591 525.803 30.5639 532.441 36.2343C537.905 41.0004 541.511 46.8418 543.261 53.9218L530.052 57.9218C528.929 52.8831 526.451 48.924 522.483 45.7772C518.472 42.5964 513.77 41.0752 508.238 41.0751C501.738 41.0751 496.344 43.1492 492.056 47.4364C487.769 51.7238 485.695 57.1179 485.695 63.618C485.695 70.1182 487.769 75.5123 492.056 79.7997C496.344 84.0869 501.738 86.161 508.238 86.161C513.77 86.1609 518.472 84.6397 522.483 81.4589C525.123 79.3654 527.101 76.9115 528.462 74.0204L544.035 69.3046C542.767 78.222 538.904 85.364 532.441 91.0018C525.803 96.6722 517.781 99.5769 508.238 99.577C497.727 99.577 489.014 96.1193 482.237 89.3427C475.322 82.5658 471.865 73.9907 471.865 63.618C471.865 53.2454 475.322 44.6702 482.237 37.8934C489.014 31.1168 497.727 27.6591 508.238 27.6591Z" fill="white"/>
</svg>
